<?xml version="1.0" encoding="utf-8"?>
<!-- Generator: Adobe Illustrator 19.0.0, SVG Export Plug-In . SVG Version: 6.00 Build 0)  -->
<svg version="1.1" id="Layer_1" xmlns="http://www.w3.org/2000/svg" xmlns:xlink="http://www.w3.org/1999/xlink" x="0px" y="0px"
	 viewBox="-404 212 150 137" style="enable-background:new -404 212 150 137;" xml:space="preserve">
<style type="text/css">
	.st0{clip-path:url(#SVGID_2_);}
</style>
<g>
	<g>
		<defs>
			<rect id="SVGID_1_" x="-403.5" y="212" width="149" height="137"/>
		</defs>
		<clipPath id="SVGID_2_">
			<use xlink:href="#SVGID_1_"  style="overflow:visible;"/>
		</clipPath>
		<g class="st0">
			<path d="M-371,338.8c0.9,0.1,1.8,0.2,2.7,0.1c1.7,0,3.4,0,5,0h3h3c0.1,0,0.3,0,0.4-0.1s0.2-0.2,0.2-0.3c0.3,0,0.6,0,1,0
				c3.3,0.4,5.6-0.7,7.2-3.3c0.4-0.6,0.8-1,1.4-1.5c0.3-0.3,0.6-0.5,0.9-0.8c1.1-1.1,2.1-2.1,3.2-3.2c2.4-2.3,4.8-4.8,7-7.3
				c15.2-17.5,32.2-36.1,52-57c2.9-3.1,5.8-6.1,8.7-9.2c6-6.3,12.2-12.8,18.3-19.3c1.6-1.7,2.4-3.6,2.3-5.5
				c-0.1-1.9-1.2-3.7-3.1-5.2c-1.6-1.3-3.2-2.5-4.8-3.8c-1.1-0.9-2.2-1.7-3.3-2.6c-0.9-0.7-1.9-1.5-2.8-2.3
				c-1.7-1.4-3.5-2.8-5.3-4.2c-2.5-1.9-4-1.8-6.4,0.2c-0.3,0.3-0.6,0.6-0.9,0.9c-0.1,0.1-0.2,0.2-0.3,0.3l-7.7,7.7
				c-5.4,5.3-10.7,10.7-16.1,16c-22.5,22.4-43.6,46.3-63.1,71.3c-1.7,2.2-2.9,4.7-3.5,7.4c-0.8,3.5-1.8,6.9-2.7,10.3
				c-0.3,1.3-0.7,2.5-1,3.8c-0.3,0.8-0.4,1.7-0.3,2.5s0.4,1.7,0.8,2.4c0.5,0.7,1.1,1.3,1.9,1.7C-372.7,338.5-371.9,338.7-371,338.8z
				 M-356.5,331.1l-5.7,0.8l-4.7-5.9l1.1-6.4L-356.5,331.1z M-293.1,237.2l11.6,14.2l-70.7,76.5l-11-13.8
				C-341.3,287.2-317.9,261.5-293.1,237.2L-293.1,237.2z M-288.6,232.5l12.3-11.6l12.8,12c-2.1,2.6-4.4,5-6.8,7.3
				c-2,2-4.1,4.1-6,6.4L-288.6,232.5z"/>
		</g>
	</g>
</g>
</svg>
