<svg width="24" height="17" viewBox="0 0 24 17" fill="none" xmlns="http://www.w3.org/2000/svg">
<g clip-path="url(#clip0_159_2)">
<path d="M11.4 2.69999C13.8 2.39999 16.3 2.39999 18.7 1.99999C18.8 1.99999 18.8 1.79999 18.7 1.79999C12.6 2.09999 6.30002 2.19999 0.300024 3.59999C0.200024 3.59999 0.200024 3.79999 0.300024 3.79999C8.00002 5.09999 15.8 2.79999 23.5 3.59999C23.5 3.49999 23.5 3.49999 23.5 3.39999C16.8 4.69999 9.90002 3.99999 3.20002 5.69999C3.10002 5.69999 3.10002 5.89999 3.20002 5.89999C9.70002 6.59999 16.3 5.19999 22.8 4.89999C22.9 4.89999 22.9 4.69999 22.8 4.69999C15.2 4.69999 7.60002 4.99999 0.100024 5.49999C2.44156e-05 5.49999 2.44156e-05 5.69999 0.100024 5.69999C6.50002 5.39999 12.8 3.89999 19.3 3.59999C19.3 3.49999 19.3 3.49999 19.3 3.39999C14.3 3.89999 9.20002 3.59999 4.30002 4.39999C4.20002 4.39999 4.20002 4.59999 4.30002 4.59999C10.5 4.69999 16.7 3.49999 23 3.29999C23.1 3.29999 23.1 3.09999 23 3.09999C16.5 3.09999 9.80002 3.29999 3.40002 4.79999C3.30002 4.79999 3.30002 4.99999 3.40002 4.99999C6.50002 5.69999 9.80002 5.59999 13 5.49999C16.5 5.29999 19.9 4.89999 23.4 4.89999C23.4 4.79999 23.4 4.79999 23.4 4.69999C16.1 5.09999 8.60002 4.79999 1.40002 6.29999C1.30002 6.29999 1.30002 6.49999 1.40002 6.49999C7.80002 7.49999 14.3 5.69999 20.7 5.69999C20.7 5.59999 20.7 5.59999 20.7 5.49999C15 6.29999 9.10002 5.89999 3.40002 6.79999C3.30002 6.79999 3.30002 6.99999 3.40002 6.99999C9.60002 7.69999 15.9 6.49999 22.1 6.39999C22.1 6.29999 22.1 6.29999 22.1 6.19999C15.4 6.69999 8.60002 6.59999 1.90002 7.59999C1.80002 7.59999 1.80002 7.79999 1.90002 7.79999C8.00002 7.99999 14.2 7.09999 20.3 7.09999C20.3 6.99999 20.3 6.99999 20.3 6.89999C13.9 7.19999 7.40002 7.39999 1.00002 8.39999C0.900024 8.39999 1.00002 8.59999 1.00002 8.59999C6.40002 8.99999 11.7 8.19999 17 8.19999C17 8.09999 17 7.99999 17 7.99999C12.1 8.69999 7.20002 8.59999 2.30002 9.19999C2.20002 9.19999 2.20002 9.39999 2.30002 9.39999C7.00002 9.49999 11.7 8.69999 16.5 8.69999C16.6 8.69999 16.6 8.49999 16.5 8.49999C12.2 8.49999 7.90002 8.59999 3.70002 9.09999C3.60002 9.09999 3.60002 9.29999 3.70002 9.29999C8.50002 9.49999 13.4 8.99999 18.3 8.69999C18.4 8.69999 18.4 8.49999 18.3 8.49999C14 8.19999 9.60002 8.79999 5.30002 9.29999C5.20002 9.29999 5.20002 9.49999 5.30002 9.49999C9.60002 9.99999 13.9 9.39999 18.3 9.39999C18.3 9.29999 18.3 9.29999 18.3 9.19999C12.9 9.89999 7.30002 9.89999 1.90002 10.6C1.80002 10.6 1.80002 10.8 1.90002 10.8C8.50002 11.2 15 9.59999 21.6 9.49999C21.6 9.39999 21.6 9.39999 21.6 9.29999C15.9 9.39999 10.1 9.29999 4.50002 10.4C4.40002 10.4 4.40002 10.6 4.50002 10.6C9.40002 11 14.2 10.3 19.1 10.3C19.2 10.3 19.2 10.1 19.1 10.1C13 10.1 6.90002 11.1 0.900024 11.9C0.800024 11.9 0.800024 12.1 0.900024 12.1C7.10002 12.6 13.2 11.3 19.4 10.9C19.5 10.9 19.5 10.7 19.4 10.7C14.6 11 9.80002 11.2 5.00002 11.9C4.90002 11.9 5.00002 12 5.00002 12C10.1 12.4 15.1 11.6 20.2 11.6C20.2 11.5 20.2 11.5 20.2 11.4C15.4 11.5 10.5 11.5 5.70002 12.2C5.60002 12.2 5.60002 12.4 5.70002 12.4C10.6 12.8 15.5 12 20.4 12.3C20.4 12.2 20.4 12.2 20.4 12.1C15 12.4 9.60002 12.3 4.20002 13.2C4.10002 13.2 4.10002 13.4 4.20002 13.4C9.20002 14.1 14.3 13.1 19.4 13.1C19.4 13 19.4 13 19.4 12.9C15.4 13.4 11.3 13.2 7.30002 13.7C7.20002 13.7 7.20002 13.9 7.30002 13.9C11.2 13.9 15.1 13.8 19 13.8C19.1 13.8 19.1 13.6 19 13.6C15.1 13.6 11.2 13.7 7.30002 13.7C7.30002 13.8 7.30002 13.8 7.30002 13.9C11.3 13.4 15.4 13.6 19.4 13.1C19.5 13.1 19.5 12.9 19.4 12.9C14.4 12.9 9.30002 13.9 4.30002 13.2C4.30002 13.3 4.30002 13.3 4.30002 13.4C9.70002 12.5 15.1 12.6 20.5 12.3C20.6 12.3 20.6 12.1 20.5 12.1C15.6 11.8 10.7 12.6 5.80002 12.2C5.80002 12.3 5.80002 12.3 5.80002 12.4C10.6 11.7 15.4 11.7 20.2 11.6C20.3 11.6 20.3 11.4 20.2 11.4C15.1 11.4 10.1 12.2 5.00002 11.8C5.00002 11.9 5.00002 11.9 5.00002 12C9.70002 11.3 14.5 11.2 19.3 10.9C19.3 10.8 19.3 10.8 19.3 10.7C13.2 11.2 7.10002 12.5 0.900024 12C0.900024 12.1 0.900024 12.1 0.900024 12.2C6.90002 11.4 13 10.4 19.1 10.4C19.1 10.3 19.1 10.3 19.1 10.2C14.2 10.2 9.40002 10.9 4.50002 10.5C4.50002 10.6 4.50002 10.6 4.50002 10.7C10.1 9.59999 15.9 9.69999 21.6 9.59999C21.7 9.59999 21.7 9.39999 21.6 9.39999C15 9.39999 8.50002 11 1.90002 10.6C1.90002 10.7 1.90002 10.7 1.90002 10.8C7.30002 10.1 12.8 10.1 18.3 9.39999C18.4 9.39999 18.4 9.19999 18.3 9.19999C14 9.19999 9.70002 9.89999 5.30002 9.29999C5.30002 9.39999 5.30002 9.39999 5.30002 9.49999C9.60002 8.89999 13.9 8.39999 18.3 8.69999C18.3 8.59999 18.3 8.59999 18.3 8.49999C13.4 8.79999 8.50002 9.39999 3.70002 9.09999C3.70002 9.19999 3.70002 9.19999 3.70002 9.29999C8.00002 8.89999 12.2 8.79999 16.5 8.69999C16.5 8.59999 16.5 8.59999 16.5 8.49999C11.7 8.59999 7.00002 9.39999 2.30002 9.19999C2.30002 9.29999 2.30002 9.29999 2.30002 9.39999C7.20002 8.69999 12.2 8.79999 17 8.19999C17.1 8.19999 17.1 7.99999 17 7.99999C11.7 7.99999 6.40002 8.79999 1.00002 8.39999C1.00002 8.49999 1.00002 8.49999 1.00002 8.59999C7.40002 7.59999 13.8 7.39999 20.3 7.09999C20.4 7.09999 20.4 6.89999 20.3 6.89999C14.1 6.89999 8.00002 7.89999 1.80002 7.59999C1.80002 7.69999 1.80002 7.69999 1.80002 7.79999C8.50002 6.89999 15.3 6.99999 22 6.39999C22.1 6.39999 22.1 6.19999 22 6.19999C15.8 6.19999 9.50002 7.39999 3.30002 6.79999C3.30002 6.89999 3.30002 6.89999 3.30002 6.99999C9.20002 6.09999 15 6.49999 20.8 5.69999C20.9 5.69999 20.9 5.49999 20.8 5.49999C14.4 5.49999 7.90002 7.29999 1.50002 6.29999C1.50002 6.39999 1.50002 6.39999 1.50002 6.49999C8.70002 4.99999 16.1 5.29999 23.4 4.89999C23.5 4.89999 23.5 4.69999 23.4 4.69999C20.1 4.69999 16.8 5.09999 13.4 5.29999C10.1 5.49999 6.70002 5.59999 3.40002 4.89999C3.40002 4.99999 3.40002 4.99999 3.40002 5.09999C9.80002 3.69999 16.4 3.49999 22.9 3.39999C22.9 3.29999 22.9 3.29999 22.9 3.19999C16.7 3.29999 10.5 4.49999 4.20002 4.39999C4.20002 4.49999 4.20002 4.49999 4.20002 4.59999C9.20002 3.79999 14.2 4.19999 19.2 3.59999C19.3 3.59999 19.3 3.39999 19.2 3.39999C12.8 3.69999 6.50002 5.19999 0.100024 5.49999C0.100024 5.59999 0.100024 5.59999 0.100024 5.69999C7.70002 5.19999 15.2 4.89999 22.8 4.89999C22.8 4.79999 22.8 4.79999 22.8 4.69999C16.3 4.99999 9.80002 6.39999 3.20002 5.69999C3.20002 5.79999 3.20002 5.79999 3.20002 5.89999C9.80002 4.19999 16.8 4.89999 23.5 3.69999C23.6 3.69999 23.6 3.49999 23.5 3.49999C15.8 2.59999 8.10002 4.89999 0.400024 3.59999C0.400024 3.69999 0.400024 3.69999 0.400024 3.79999C6.40002 2.39999 12.6 2.29999 18.7 1.99999C18.7 1.89999 18.7 1.89999 18.7 1.79999C16.3 2.19999 13.8 2.19999 11.4 2.49999C11.3 2.49999 11.3 2.69999 11.4 2.69999Z" fill="currentColor"/>
<path d="M6.90003 4.7C6.50003 3.5 5.90003 2.2 5.40003 1C5.40003 0.9 5.30003 0.9 5.30003 1C4.30003 3.2 4.20003 5.7 4.20003 8.1C4.20003 10.7 4.40003 13.4 4.80003 16C4.80003 16.1 4.90003 16.1 5.00003 16C5.70003 11.5 5.30003 7 5.00003 2.6C5.00003 2.5 4.80003 2.5 4.80003 2.6C4.70003 6.6 5.10003 10.6 6.20003 14.5C6.20003 14.6 6.30003 14.6 6.40003 14.5C7.50003 10.3 6.70003 5.9 7.40003 1.7C7.30003 1.7 7.30003 1.7 7.20003 1.7C7.30003 5.6 7.50003 9.6 8.30003 13.4C8.30003 13.5 8.50003 13.5 8.50003 13.4C8.70003 9 8.70003 4.7 8.30003 0.4C8.30003 0.3 8.10003 0.3 8.10003 0.4C8.00003 5.2 8.60003 10 9.90003 14.6C9.90003 14.7 10 14.7 10.1 14.6C11.2 10.6 11.1 6.4 11.1 2.3C11.1 2.2 10.9 2.2 10.9 2.3C10.9 6.9 11.1 11.6 12.3 16.1C12.3 16.2 12.4 16.2 12.5 16.1C13.5 11.4 12.9 6.6 12.8 1.9C12.8 1.8 12.6 1.8 12.6 1.9C12.3 6 12.6 10.1 13.4 14C13.4 14.1 13.5 14.1 13.6 14C14.6 9.6 14.6 5.2 14.8 0.8C14.7 0.8 14.7 0.8 14.6 0.8C14.8 3.2 14.7 5.6 14.8 8C15 10.3 15.3 12.6 16.5 14.6C16.5 14.7 16.6 14.6 16.7 14.6C18.1 10.7 18.2 6.4 17.8 2.3C17.8 2.2 17.6 2.2 17.6 2.3C17.2 6.1 17.3 10.1 18.6 13.8C18.6 13.9 18.8 13.9 18.8 13.8C19.4 10.1 19.5 6.2 18.8 2.5C18.8 2.4 18.7 2.4 18.6 2.5C17.5 6.6 18.2 11 17.6 15.2C17.7 15.2 17.7 15.2 17.8 15.2C17 11.2 17 7.2 16.1 3.4C16.1 3.3 15.9 3.3 15.9 3.4C15.4 6.5 15.6 9.7 16.2 12.8C16.2 12.9 16.4 12.9 16.4 12.8C16.7 8.9 17 4.8 15.6 1.1C15.6 1 15.5 1 15.4 1.1C13.9 4.7 13.9 8.6 13.7 12.4C13.8 12.4 13.8 12.4 13.9 12.4C13.4 8.7 13.6 4.9 12.9 1.2C12.9 1.1 12.8 1.1 12.7 1.2C11.1 4.3 11.3 7.9 11.3 11.3C11.3 11.4 11.5 11.4 11.5 11.3C11.5 7.9 11.8 4.6 11.6 1.2C11.6 1.1 11.4 1.1 11.4 1.2C11.1 5.5 11.1 9.9 12.4 14C12.4 14.1 12.5 14.1 12.6 14C14.2 9.9 13.6 5.3 13.6 1C13.6 0.9 13.4 0.9 13.4 1C13.4 4 13.4 7 14 10C14 10.1 14.1 10.1 14.2 10C14.9 8.9 15.1 7.6 15.1 6.3C15.1 4.8 14.9 3.3 14.8 1.8C14.8 1.7 14.6 1.7 14.6 1.8C13.9 6 14 10.1 13.8 14.3C13.9 14.3 13.9 14.3 14 14.3C12 9.9 12.6 5 11.4 0.4C11.4 0.3 11.3 0.3 11.2 0.4C10.2 4.6 10.1 9 10.5 13.2C10.5 13.3 10.7 13.3 10.7 13.2C10.4 9.2 11.4 5 9.80003 1.3C9.80003 1.2 9.70003 1.3 9.70003 1.3C8.60003 3 8.40003 5.2 8.30003 7.2C8.20003 9.4 8.40003 11.6 8.50003 13.8C8.50003 13.9 8.70003 13.9 8.70003 13.8C8.90003 10.1 9.00003 6.5 9.00003 2.8C9.00003 2.7 8.80003 2.7 8.80003 2.8C8.50003 6.3 8.30003 9.7 8.30003 13.2C8.30003 13.3 8.50003 13.3 8.50003 13.2C8.70003 9.7 9.40003 6.3 9.50003 2.8C9.50003 2.7 9.30003 2.7 9.30003 2.8C9.00003 6.8 9.00003 10.9 9.30003 14.9C9.30003 15 9.50003 15 9.50003 14.9C9.90003 10.7 9.50003 6.5 9.40003 2.4C9.40003 2.3 9.20003 2.3 9.20003 2.4C9.20003 6.3 9.20003 10.2 10 14C10 14.1 10.2 14.1 10.2 14C10.4 11.8 10.6 9.6 10.5 7.3C10.4 5.3 10.2 3.1 8.90003 1.5C8.90003 1.4 8.80003 1.4 8.80003 1.5C7.70003 3.2 7.30003 5.3 7.10003 7.3C6.90003 9.3 6.90003 11.4 7.50003 13.4C7.50003 13.5 7.60003 13.5 7.70003 13.4C8.70003 9.7 8.40003 5.9 8.30003 2.2C8.20003 2.1 8.00003 2 8.00003 2.1C7.30003 4.8 7.20003 7.7 7.40003 10.5C7.40003 10.6 7.60003 10.6 7.60003 10.5C8.00003 7 7.50003 3.4 6.20003 0.1C6.20003 0 6.10003 0 6.00003 0.1C5.40003 2 5.20003 4.1 5.20003 6.1C5.20003 8.1 5.50003 10.2 6.10003 12.1C6.10003 12.2 6.30003 12.2 6.30003 12.1C6.70003 8.6 6.30003 5 5.30003 1.6C5.30003 1.5 5.20003 1.5 5.10003 1.6C4.40003 5 4.70003 8.7 5.60003 12.1C5.60003 12.2 5.80003 12.2 5.80003 12.1C6.20003 9.4 6.30003 6.4 5.10003 3.9C5.10003 3.8 5.00003 3.9 4.90003 3.9C3.90003 6.9 4.30003 10.4 5.00003 13.5C5.00003 13.6 5.20003 13.6 5.20003 13.5C5.40003 10 4.70003 6.6 4.00003 3.2C4.00003 3.1 3.80003 3.1 3.80003 3.2C3.90003 6.2 3.80003 9.1 4.50003 12C4.50003 12.1 4.70003 12.1 4.70003 12C4.80003 9.1 4.70003 6.1 4.00003 3.3C4.00003 3.2 3.90003 3.2 3.80003 3.3C3.20003 6.6 3.30003 10 4.00003 13.2C4.00003 13.3 4.20003 13.3 4.20003 13.2C4.30003 9.7 3.90003 6.2 3.30003 2.8C3.30003 2.7 3.10003 2.7 3.10003 2.8C2.90003 5.1 3.00003 7.4 3.70003 9.6C3.70003 9.7 3.90003 9.7 3.90003 9.6C3.20003 7.4 3.10003 5.1 3.30003 2.8C3.20003 2.8 3.20003 2.8 3.10003 2.8C3.70003 6.3 4.10003 9.7 4.00003 13.2C4.10003 13.2 4.10003 13.2 4.20003 13.2C3.50003 10 3.30003 6.6 4.00003 3.4C3.90003 3.4 3.90003 3.4 3.80003 3.4C4.50003 6.2 4.60003 9.2 4.50003 12.1C4.60003 12.1 4.60003 12.1 4.70003 12.1C4.00003 9.2 4.20003 6.2 4.00003 3.3C3.90003 3.3 3.90003 3.3 3.80003 3.3C4.60003 6.6 5.20003 10 5.10003 13.4C5.20003 13.4 5.20003 13.4 5.30003 13.4C4.60003 10.4 4.10003 7 5.10003 4H5.00003C6.10003 6.4 6.10003 9.4 5.60003 12C5.70003 12 5.70003 12 5.80003 12C4.80003 8.7 4.50003 5 5.40003 1.6C5.30003 1.6 5.30003 1.6 5.20003 1.6C6.10003 5 6.60003 8.5 6.20003 12C6.30003 12 6.30003 12 6.40003 12C5.80003 10.1 5.50003 8 5.50003 6C5.50003 4 5.60003 1.9 6.30003 0C6.20003 0 6.20003 0 6.10003 0C7.30003 3.4 7.80003 7 7.40003 10.6C7.50003 10.6 7.50003 10.6 7.60003 10.6C7.30003 7.8 7.50003 4.9 8.20003 2.2C8.10003 2.2 8.10003 2.2 8.00003 2.2C8.10003 5.9 8.40003 9.7 7.50003 13.3C7.60003 13.3 7.60003 13.3 7.70003 13.3C7.10003 11.4 7.10003 9.3 7.30003 7.3C7.30003 6.2 7.60003 5.1 7.90003 4C8.00003 3.5 8.20003 3 8.50003 2.5C8.60003 2.3 8.70003 2.1 8.80003 1.9C9.00003 1.6 9.00003 1.9 9.20003 2.1C10.3 3.8 10.4 6.1 10.4 8.1C10.4 10.1 10.2 12 10.1 14C10.2 14 10.2 14 10.3 14C9.40003 10.2 9.40003 6.3 9.40003 2.4C9.30003 2.4 9.30003 2.4 9.20003 2.4C9.40003 6.6 9.80003 10.8 9.40003 15C9.50003 15 9.50003 15 9.60003 15C9.30003 11 9.30003 6.9 9.60003 2.9C9.50003 2.9 9.50003 2.9 9.40003 2.9C9.20003 6.3 8.60003 9.7 8.30003 13.2C8.40003 13.2 8.40003 13.2 8.50003 13.2C8.40003 9.7 8.70003 6.3 9.00003 2.8C8.90003 2.8 8.90003 2.8 8.80003 2.8C8.80003 6.4 8.70003 10.1 8.50003 13.7C8.60003 13.7 8.60003 13.7 8.70003 13.7C8.60003 10.1 8.00003 6.2 9.20003 2.7C9.30003 2.3 9.50003 1.9 9.70003 1.5C9.70003 1.6 9.90003 2.1 9.90003 2.1C10 2.4 10.1 2.7 10.2 3C10.5 4.1 10.5 5.3 10.6 6.5C10.6 8.7 10.4 11 10.5 13.2C10.6 13.2 10.6 13.2 10.7 13.2C10.3 8.9 10.4 4.6 11.4 0.4C11.3 0.4 11.3 0.4 11.2 0.4C12.5 5 11.8 10 13.8 14.3C13.8 14.4 14 14.3 14 14.3C14.3 10.2 14.1 6 14.8 1.9C14.7 1.9 14.7 1.9 14.6 1.9C14.8 3.2 14.9 4.5 14.9 5.8C14.9 7.2 14.8 8.8 14 10C14.1 10 14.1 10 14.2 10C13.7 7 13.7 4 13.7 1C13.6 1 13.6 1 13.5 1C13.5 5.3 14.1 9.9 12.5 13.9C12.6 13.9 12.6 13.9 12.7 13.9C11.4 9.8 11.5 5.4 11.7 1.1C11.6 1.1 11.6 1.1 11.5 1.1C11.6 4.5 11.4 7.8 11.4 11.2C11.5 11.2 11.5 11.2 11.6 11.2C11.6 7.9 11.4 4.2 13 1.2C12.9 1.2 12.9 1.2 12.8 1.2C13.5 4.9 13.2 8.7 13.8 12.4C13.8 12.5 14 12.5 14 12.4C14.1 8.6 14.1 4.7 15.6 1.1C15.5 1.1 15.5 1.1 15.4 1.1C16.8 4.8 16.5 8.9 16.2 12.8C16.3 12.8 16.3 12.8 16.4 12.8C15.9 9.7 15.6 6.6 16.1 3.5C16 3.5 16 3.5 15.9 3.5C16.7 7.4 16.7 11.3 17.6 15.2C17.6 15.3 17.8 15.3 17.8 15.2C18.3 11 17.7 6.7 18.8 2.5C18.7 2.5 18.7 2.5 18.6 2.5C19.3 6.2 19.2 10.1 18.6 13.8C18.7 13.8 18.7 13.8 18.8 13.8C17.5 10.2 17.4 6.2 17.8 2.4C17.7 2.4 17.7 2.4 17.6 2.4C18 6.5 17.9 10.8 16.5 14.6C16.6 14.6 16.6 14.6 16.7 14.6C15.5 12.6 15.2 10.2 15 7.9C14.8 5.6 14.9 3.2 14.8 0.9C14.8 0.8 14.6 0.8 14.6 0.9C14.3 5.3 14.3 9.8 13.4 14.1C13.5 14.1 13.5 14.1 13.6 14.1C12.8 10.1 12.5 6.1 12.8 2C12.7 2 12.7 2 12.6 2C12.7 6.7 13.3 11.5 12.3 16.2C12.4 16.2 12.4 16.2 12.5 16.2C11.3 11.7 11.1 7.1 11.1 2.4C11 2.4 11 2.4 10.9 2.4C10.9 6.5 11 10.7 9.90003 14.6C10 14.6 10 14.6 10.1 14.6C8.70003 9.9 8.20003 5.2 8.30003 0.4C8.20003 0.4 8.20003 0.4 8.10003 0.4C8.50003 4.7 8.50003 9 8.20003 13.4C8.30003 13.4 8.30003 13.4 8.40003 13.4C7.60003 9.5 7.40003 5.6 7.30003 1.7C7.30003 1.6 7.10003 1.6 7.10003 1.7C6.40003 5.9 7.20003 10.3 6.10003 14.5C6.20003 14.5 6.20003 14.5 6.30003 14.5C5.20003 10.6 4.90003 6.5 5.00003 2.6C4.90003 2.6 4.90003 2.6 4.80003 2.6C5.10003 7 5.50003 11.5 4.70003 15.9C4.80003 15.9 4.80003 15.9 4.90003 15.9C4.50003 13 4.20003 10 4.30003 7C4.30003 5.5 4.50003 3.9 4.90003 2.4C5.00003 2.2 5.10003 1.9 5.20003 1.7L5.40003 1.3C5.50003 1.5 5.60003 1.7 5.70003 1.9C6.10003 2.8 6.50003 3.8 6.80003 4.7C6.80003 4.9 7.00003 4.9 6.90003 4.7Z" fill="currentColor"/>
<path d="M19.2 3.80002C18.9 2.70002 18.5 1.70002 17.8 0.700024C17.7 0.600024 17.6 0.700024 17.6 0.700024C17.2 4.90002 18 9.00002 19.2 12.9C19.2 13 19.4 13 19.4 12.9C19.8 9.50002 19.4 6.00002 19.9 2.60002C19.8 2.60002 19.8 2.60002 19.7 2.60002C19.7 5.50002 19.4 8.50002 19.8 11.4C19.8 11.5 19.9 11.5 20 11.4C20.7 8.30002 20.2 5.10002 19.9 2.00002C19.9 1.90002 19.7 1.90002 19.7 2.00002C19.6 5.70002 20.1 9.40002 21.1 12.9C21.1 13 21.3 13 21.3 12.9C21.4 9.70002 21.4 6.50002 21 3.30002C21 3.20002 20.8 3.20002 20.8 3.30002C20.7 6.00002 20.5 8.70003 20.9 11.3C20.9 11.4 21.1 11.4 21.1 11.3C21.4 7.80002 21.6 3.90002 19.8 0.600024C19.8 0.500024 19.7 0.500024 19.7 0.600024C18.8 2.20002 18.6 4.00002 18.5 5.80002C18.4 7.90002 18.6 10 18.7 12C18.8 12 18.8 12 18.9 12C18.8 8.80002 18.8 5.60002 18.1 2.50002C18.1 2.40002 18 2.40002 17.9 2.50002C17.4 4.80002 17.2 7.20003 17.6 9.60003C17.6 9.70003 17.8 9.70003 17.8 9.60003C17.5 7.00003 17.5 4.40002 16.6 2.00002C16.6 1.90002 16.5 1.90002 16.5 2.00002C15.5 3.20002 15.1 4.80002 14.9 6.40002C14.6 8.00002 14.7 9.80002 15 11.5C15 11.6 15.1 11.6 15.2 11.5C16.2 8.20002 16.3 4.80002 16.6 1.40002C16.6 1.30002 16.5 1.30002 16.4 1.40002C15.3 5.10002 14.9 8.90002 14.9 12.7C14.9 12.8 15.1 12.8 15.1 12.7C15.7 9.30002 16.2 5.60002 15.1 2.20002C15.1 2.10002 15 2.10002 14.9 2.20002C13.9 5.60002 13.6 9.50002 14.6 12.9C14.6 13 14.7 13 14.8 12.9C14.9 12.2 15.1 11.5 15.2 10.8C15.2 10.7 15.1 10.6 15 10.8C14.9 11.5 14.7 12.2 14.6 12.9C14.7 12.9 14.7 12.9 14.8 12.9C13.8 9.50002 14.1 5.70002 15.1 2.30002C15 2.30002 15 2.30002 14.9 2.30002C16 5.60002 15.5 9.30002 14.9 12.7C15 12.7 15 12.7 15.1 12.7C15.1 8.90002 15.5 5.10002 16.6 1.40002C16.5 1.40002 16.5 1.40002 16.4 1.40002C16.1 4.80002 16 8.20002 15 11.4C15.1 11.4 15.1 11.4 15.2 11.4C14.7 8.90002 14.8 6.20002 15.6 3.80002C15.8 3.30002 16 2.80002 16.3 2.30002C16.4 2.10002 16.5 2.00002 16.5 2.20002C16.6 2.40002 16.7 2.60002 16.7 2.90002C16.8 3.40002 16.9 3.80002 17 4.30002C17.3 6.00002 17.4 7.80003 17.6 9.60003C17.7 9.60003 17.7 9.60003 17.8 9.60003C17.4 7.30003 17.5 4.90002 18.1 2.60002C18 2.60002 18 2.60002 17.9 2.60002C18.6 5.70002 18.6 8.90003 18.7 12.1C18.7 12.2 18.9 12.2 18.9 12.1C18.8 8.70003 18.1 4.90002 19.4 1.60002C19.5 1.40002 19.6 1.20002 19.7 1.00002C19.8 0.800024 19.8 0.900024 19.9 1.10002C20.1 1.60002 20.3 2.10002 20.5 2.70002C20.8 3.70002 20.9 4.70002 21 5.70002C21.2 7.60002 21.1 9.50003 20.9 11.3C21 11.3 21 11.3 21.1 11.3C20.7 8.70003 20.8 6.00002 21 3.30002C20.9 3.30002 20.9 3.30002 20.8 3.30002C21.2 6.50002 21.2 9.70002 21.1 12.9C21.2 12.9 21.2 12.9 21.3 12.9C20.3 9.30002 19.7 5.70002 19.9 2.00002C19.8 2.00002 19.8 2.00002 19.7 2.00002C20 5.10002 20.5 8.30002 19.8 11.3C19.9 11.3 19.9 11.3 20 11.3C19.6 8.40002 19.9 5.40002 19.9 2.50002C19.9 2.40002 19.7 2.40002 19.7 2.50002C19.2 5.90002 19.5 9.40002 19.1 12.9C19.2 12.9 19.2 12.9 19.3 12.9C18.2 9.00002 17.4 4.90002 17.8 0.800024C17.7 0.800024 17.7 0.800024 17.6 0.800024C18.2 1.70002 18.7 2.70002 19 3.80002C19 3.90002 19.2 3.90002 19.2 3.80002Z" fill="currentColor"/>
</g>
<defs>
<clipPath id="clip0_159_2">
<rect width="23.6" height="16.2" fill="white"/>
</clipPath>
</defs>
</svg>
